<svg width="836" height="779" viewBox="0 0 836 779" fill="none" xmlns="http://www.w3.org/2000/svg">
<g clip-path="url(#clip0)">
<path d="M258.491 160.657L237.187 108.816C234.279 101.741 227.386 97.1207 219.736 97.1207H23.584C13.1636 97.1207 4.7168 105.568 4.7168 115.988V243.341C4.7168 253.762 13.1636 262.209 23.584 262.209H298.416C308.836 262.209 317.283 253.762 317.283 243.341V198.452C317.283 190.331 312.087 183.121 304.382 180.553L266.148 167.808C262.677 166.651 259.882 164.041 258.491 160.657Z" fill="#F7F6F7"/>
<path d="M304.382 180.553L266.148 167.808C262.677 166.651 259.882 164.04 258.492 160.657L237.188 108.816C234.28 101.741 227.387 97.1207 219.737 97.1207H200.87C208.52 97.1207 215.412 101.74 218.32 108.816L239.625 160.657C241.015 164.04 243.811 166.651 247.281 167.808L285.515 180.553C293.219 183.121 298.416 190.331 298.416 198.451V243.341C298.416 253.761 289.969 262.208 279.549 262.208H298.416C308.836 262.208 317.283 253.761 317.283 243.341V198.451C317.283 190.331 312.087 183.121 304.382 180.553Z" fill="#EDEBED"/>
<path d="M164.145 162.841V119.132C164.145 117.396 165.553 115.988 167.289 115.988H216.736C218.019 115.988 219.173 116.768 219.652 117.958L237.246 161.667C238.078 163.734 236.557 165.986 234.329 165.986H167.289C165.553 165.986 164.145 164.578 164.145 162.841Z" fill="#BED8FB"/>
<path d="M237.246 161.667L219.652 117.958C219.173 116.768 218.018 115.988 216.735 115.988H197.868C199.152 115.988 200.306 116.768 200.785 117.958L218.379 161.667C219.211 163.734 217.69 165.986 215.462 165.986H234.329C236.557 165.986 238.077 163.734 237.246 161.667Z" fill="#9DC6FB"/>
<path d="M298.416 203.72H317.283V213.154H298.416V203.72Z" fill="#DA4A54"/>
<path d="M214.771 97.1207H182.068V83.9137C182.068 74.8832 189.389 67.5621 198.42 67.5621C207.45 67.5621 214.771 74.8832 214.771 83.9137V97.1207Z" fill="#DD636E"/>
<path d="M198.42 67.5621C195.441 67.5621 192.65 68.3627 190.244 69.7551C195.13 72.5827 198.42 77.8624 198.42 83.9137V97.1207H214.771V83.9137C214.771 74.8832 207.45 67.5621 198.42 67.5621Z" fill="#DA4A54"/>
<path d="M239.613 297.113C258.89 297.113 274.518 281.486 274.518 262.209C274.518 242.932 258.89 227.304 239.613 227.304C220.336 227.304 204.709 242.932 204.709 262.209C204.709 281.486 220.336 297.113 239.613 297.113Z" fill="#655E67"/>
<path d="M239.613 227.304C236.343 227.304 233.181 227.763 230.18 228.605C244.872 232.722 255.65 246.202 255.65 262.209C255.65 278.216 244.872 291.696 230.18 295.812C233.181 296.653 236.343 297.113 239.613 297.113C258.891 297.113 274.518 281.486 274.518 262.209C274.518 242.931 258.891 227.304 239.613 227.304Z" fill="#544F56"/>
<path d="M239.613 271.642C244.823 271.642 249.047 267.419 249.047 262.209C249.047 256.999 244.823 252.775 239.613 252.775C234.403 252.775 230.18 256.999 230.18 262.209C230.18 267.419 234.403 271.642 239.613 271.642Z" fill="#F7F6F7"/>
<path d="M74.9971 297.113C94.2742 297.113 109.901 281.486 109.901 262.209C109.901 242.932 94.2742 227.304 74.9971 227.304C55.72 227.304 40.0928 242.932 40.0928 262.209C40.0928 281.486 55.72 297.113 74.9971 297.113Z" fill="#655E67"/>
<path d="M74.9971 227.304C71.7268 227.304 68.5652 227.763 65.5635 228.605C80.2554 232.722 91.0342 246.202 91.0342 262.209C91.0342 278.216 80.2554 291.696 65.5635 295.812C68.5652 296.653 71.7268 297.113 74.9971 297.113C94.2743 297.113 109.901 281.486 109.901 262.209C109.901 242.931 94.2743 227.304 74.9971 227.304Z" fill="#544F56"/>
<path d="M74.9971 271.642C80.2071 271.642 84.4307 267.419 84.4307 262.209C84.4307 256.999 80.2071 252.775 74.9971 252.775C69.787 252.775 65.5635 256.999 65.5635 262.209C65.5635 267.419 69.787 271.642 74.9971 271.642Z" fill="#F7F6F7"/>
<path d="M108.015 143.345H86.3174C85.2753 143.345 84.4307 142.501 84.4307 141.459V119.761C84.4307 117.677 82.7414 115.988 80.6572 115.988H69.3369C67.2527 115.988 65.5635 117.677 65.5635 119.761V141.459C65.5635 142.501 64.7189 143.345 63.6768 143.345H41.9795C39.8953 143.345 38.2061 145.035 38.2061 147.119V158.439C38.2061 160.523 39.8953 162.213 41.9795 162.213H63.6768C64.7189 162.213 65.5635 163.057 65.5635 164.099V185.797C65.5635 187.881 67.2527 189.57 69.3369 189.57H80.6572C82.7414 189.57 84.4307 187.881 84.4307 185.797V164.099C84.4307 163.057 85.2753 162.213 86.3174 162.213H108.015C110.099 162.213 111.788 160.523 111.788 158.439V147.119C111.788 145.035 110.099 143.345 108.015 143.345Z" fill="#DD636E"/>
<path d="M198.42 43.848C201.025 43.848 203.137 41.7361 203.137 39.1312V24.8871C203.137 22.2821 201.025 20.1703 198.42 20.1703C195.814 20.1703 193.703 22.2821 193.703 24.8871V39.1312C193.703 41.7361 195.814 43.848 198.42 43.848ZM175.211 44.7234C176.503 47.0164 179.402 47.7742 181.636 46.5139C183.905 45.2341 184.707 42.3575 183.427 40.0884L177.446 29.485C176.167 27.2165 173.289 26.4153 171.02 27.6945C168.751 28.9743 167.949 31.851 169.229 34.12L175.211 44.7234ZM215.204 46.5139C217.434 47.7711 220.337 47.0164 221.63 44.7234L227.611 34.12C228.891 31.851 228.09 28.9743 225.82 27.6945C223.553 26.4147 220.674 27.2165 219.395 29.485L213.413 40.0884C212.133 42.3575 212.934 45.2341 215.204 46.5139ZM305.875 176.078L267.638 163.336C265.471 162.614 263.727 160.983 262.855 158.861L241.548 107.022C237.902 98.1427 229.339 92.4052 219.733 92.4052H219.488V83.9137C219.488 72.2965 210.037 62.8453 198.42 62.8453C186.803 62.8453 177.352 72.2965 177.352 83.9137V92.4052H145.302C145.294 92.4052 145.286 92.4039 145.277 92.4039C145.269 92.4039 145.261 92.4052 145.253 92.4052H23.584C10.5795 92.4052 0 102.985 0 115.989V147.119C0 149.724 2.11124 151.836 4.7168 151.836C7.32236 151.836 9.43359 149.724 9.43359 147.119V115.989C9.43359 108.186 15.7818 101.839 23.584 101.839H140.561V203.72H9.43359V169.131C9.43359 166.526 7.32236 164.414 4.7168 164.414C2.11124 164.414 0 166.526 0 169.131V243.343C0 256.347 10.5795 266.927 23.584 266.927H35.6665C38.0079 286.556 54.7469 301.83 74.9971 301.83C95.2472 301.83 111.986 286.556 114.328 266.927H200.283C202.624 286.556 219.363 301.83 239.613 301.83C259.863 301.83 276.602 286.556 278.944 266.927H298.416C311.421 266.927 322 256.347 322 243.343V198.451C322 188.281 315.52 179.29 305.875 176.078ZM74.9971 292.396C58.3512 292.396 44.8096 278.854 44.8096 262.209C44.8096 245.563 58.3512 232.021 74.9971 232.021C91.643 232.021 105.185 245.563 105.185 262.209C105.185 278.854 91.643 292.396 74.9971 292.396ZM140.561 257.493H114.328C111.987 237.862 95.2472 222.588 74.9971 222.588C54.7469 222.588 38.0067 237.862 35.6665 257.493H23.584C15.7818 257.493 9.43359 251.146 9.43359 243.343V213.154H140.561V257.493ZM186.785 83.9137C186.785 77.4982 192.004 72.2789 198.42 72.2789C204.835 72.2789 210.055 77.4982 210.055 83.9137V92.4052H186.785V83.9137ZM239.613 292.396C222.967 292.396 209.426 278.854 209.426 262.209C209.426 245.563 222.967 232.021 239.613 232.021C256.259 232.021 269.801 245.563 269.801 262.209C269.801 278.854 256.259 292.396 239.613 292.396ZM312.566 203.72H240.621C238.016 203.72 235.905 205.832 235.905 208.437C235.905 211.042 238.016 213.154 240.621 213.154H312.566V243.343C312.566 251.146 306.218 257.493 298.416 257.493H278.944C276.604 237.862 259.863 222.588 239.613 222.588C219.363 222.588 202.623 237.862 200.283 257.493H149.994V213.154H218.61C221.215 213.154 223.326 211.042 223.326 208.437C223.326 205.832 221.215 203.72 218.61 203.72H149.994V101.839H219.734C225.497 101.839 230.636 105.28 232.823 110.606L254.13 162.447C256.046 167.109 259.882 170.695 264.656 172.286L302.894 185.027C308.679 186.954 312.566 192.349 312.566 198.451V203.72ZM224.028 116.197C222.824 113.205 219.961 111.271 216.736 111.271H167.289C162.954 111.271 159.428 114.797 159.428 119.132V162.841C159.428 167.176 162.954 170.703 167.289 170.703H234.329C239.757 170.743 243.693 164.942 241.622 159.906L224.028 116.197ZM168.861 161.269V120.705H215.673L232.002 161.269H168.861ZM239.613 248.058C231.811 248.058 225.463 254.406 225.463 262.209C225.463 270.011 231.811 276.359 239.613 276.359C247.415 276.359 253.764 270.011 253.764 262.209C253.764 254.406 247.415 248.058 239.613 248.058ZM239.613 266.925C237.012 266.925 234.896 264.81 234.896 262.209C234.896 259.607 237.012 257.492 239.613 257.492C242.214 257.492 244.33 259.607 244.33 262.209C244.33 264.81 242.214 266.925 239.613 266.925ZM80.6572 111.271H69.3369C64.6553 111.271 60.8467 115.08 60.8467 119.761V138.629H41.9795C37.2979 138.629 33.4893 142.437 33.4893 147.119V158.439C33.4893 163.121 37.2979 166.929 41.9795 166.929H60.8467V185.797C60.8467 190.478 64.6553 194.287 69.3369 194.287H80.6572C85.3388 194.287 89.1475 190.478 89.1475 185.797V166.929H108.015C112.696 166.929 116.505 163.121 116.505 158.439V147.119C116.505 142.437 112.696 138.629 108.015 138.629H89.1475V119.761C89.1475 115.08 85.3388 111.271 80.6572 111.271ZM107.071 148.062V157.496H86.3174C82.676 157.496 79.7139 160.458 79.7139 164.099V184.853H70.2803V164.099C70.2803 160.458 67.3181 157.496 63.6768 157.496H42.9229V148.062H63.6768C67.3181 148.062 70.2803 145.1 70.2803 141.459V120.705H79.7139V141.459C79.7139 145.1 82.676 148.062 86.3174 148.062H107.071ZM74.9971 248.058C67.1949 248.058 60.8467 254.406 60.8467 262.209C60.8467 270.011 67.1949 276.359 74.9971 276.359C82.7993 276.359 89.1475 270.011 89.1475 262.209C89.1475 254.406 82.7993 248.058 74.9971 248.058ZM74.9971 266.925C72.3959 266.925 70.2803 264.81 70.2803 262.209C70.2803 259.607 72.3959 257.492 74.9971 257.492C77.5982 257.492 79.7139 259.607 79.7139 262.209C79.7139 264.81 77.5982 266.925 74.9971 266.925Z" fill="black"/>
</g>
<g clip-path="url(#clip1)">
<path d="M395.51 567.358C410.141 567.358 422.001 555.498 422.001 540.867C422.001 526.236 410.141 514.376 395.51 514.376C380.88 514.376 369.02 526.236 369.02 540.867C369.02 555.498 380.88 567.358 395.51 567.358Z" fill="#FF8086"/>
<path d="M371.227 763.63C376.104 763.63 380.057 759.677 380.057 754.8C380.057 749.924 376.104 745.97 371.227 745.97C366.35 745.97 362.397 749.924 362.397 754.8C362.397 759.677 366.35 763.63 371.227 763.63Z" fill="#FFE07D"/>
<path d="M287.339 618.333C292.216 618.333 296.169 614.379 296.169 609.503C296.169 604.626 292.216 600.672 287.339 600.672C282.462 600.672 278.509 604.626 278.509 609.503C278.509 614.379 282.462 618.333 287.339 618.333Z" fill="#FFE07D"/>
<path d="M256.634 732.926C261.511 732.926 265.464 728.972 265.464 724.095C265.464 719.219 261.511 715.265 256.634 715.265C251.758 715.265 247.804 719.219 247.804 724.095C247.804 728.972 251.758 732.926 256.634 732.926Z" fill="#FFE07D"/>
<path d="M401.932 649.038C406.809 649.038 410.762 645.084 410.762 640.207C410.762 635.331 406.809 631.377 401.932 631.377C397.055 631.377 393.102 635.331 393.102 640.207C393.102 645.084 397.055 649.038 401.932 649.038Z" fill="#FFE07D"/>
<path d="M287.339 763.63C292.216 763.63 296.169 759.677 296.169 754.8C296.169 749.924 292.216 745.97 287.339 745.97C282.462 745.97 278.509 749.924 278.509 754.8C278.509 759.677 282.462 763.63 287.339 763.63Z" fill="#FFE07D"/>
<path d="M371.227 618.333C376.104 618.333 380.057 614.379 380.057 609.503C380.057 604.626 376.104 600.672 371.227 600.672C366.35 600.672 362.397 604.626 362.397 609.503C362.397 614.379 366.35 618.333 371.227 618.333Z" fill="#FFE07D"/>
<path d="M401.932 732.926C406.809 732.926 410.762 728.972 410.762 724.095C410.762 719.219 406.809 715.265 401.932 715.265C397.055 715.265 393.102 719.219 393.102 724.095C393.102 728.972 397.055 732.926 401.932 732.926Z" fill="#FFE07D"/>
<path d="M256.634 649.038C261.511 649.038 265.464 645.084 265.464 640.207C265.464 635.331 261.511 631.377 256.634 631.377C251.758 631.377 247.804 635.331 247.804 640.207C247.804 645.084 251.758 649.038 256.634 649.038Z" fill="#FFE07D"/>
<path d="M245.396 690.981C250.272 690.981 254.226 687.028 254.226 682.151C254.226 677.274 250.272 673.321 245.396 673.321C240.519 673.321 236.565 677.274 236.565 682.151C236.565 687.028 240.519 690.981 245.396 690.981Z" fill="#FFE07D"/>
<path d="M413.171 690.981C418.047 690.981 422.001 687.028 422.001 682.151C422.001 677.274 418.047 673.321 413.171 673.321C408.294 673.321 404.341 677.274 404.341 682.151C404.341 687.028 408.294 690.981 413.171 690.981Z" fill="#FFE07D"/>
<path d="M329.283 739.548C360.983 739.548 386.68 713.851 386.68 682.151C386.68 650.452 360.983 624.754 329.283 624.754C297.584 624.754 271.886 650.452 271.886 682.151C271.886 713.851 297.584 739.548 329.283 739.548Z" fill="#FF8086"/>
<path d="M338.114 730.718C306.414 730.718 280.717 705.021 280.717 673.321C280.717 659.722 285.47 647.247 293.374 637.412C280.284 647.932 271.886 664.051 271.886 682.151C271.886 713.85 297.584 739.548 329.283 739.548C347.384 739.548 363.503 731.15 374.023 718.06C364.187 725.964 351.713 730.718 338.114 730.718Z" fill="#E5646E"/>
<path d="M329.283 774.869C334.16 774.869 338.113 770.916 338.113 766.039C338.113 761.162 334.16 757.209 329.283 757.209C324.407 757.209 320.453 761.162 320.453 766.039C320.453 770.916 324.407 774.869 329.283 774.869Z" fill="#FFE07D"/>
<path d="M329.283 607.094C334.16 607.094 338.113 603.141 338.113 598.264C338.113 593.387 334.16 589.434 329.283 589.434C324.407 589.434 320.453 593.387 320.453 598.264C320.453 603.141 324.407 607.094 329.283 607.094Z" fill="#FFE07D"/>
<path d="M351.359 668.906C356.235 668.906 360.189 664.953 360.189 660.076C360.189 655.199 356.235 651.246 351.359 651.246C346.482 651.246 342.529 655.199 342.529 660.076C342.529 664.953 346.482 668.906 351.359 668.906Z" fill="#FFE07D"/>
<path d="M329.283 690.981C334.16 690.981 338.113 687.028 338.113 682.151C338.113 677.274 334.16 673.321 329.283 673.321C324.407 673.321 320.453 677.274 320.453 682.151C320.453 687.028 324.407 690.981 329.283 690.981Z" fill="#FFE07D"/>
<path d="M307.208 668.906C312.084 668.906 316.038 664.953 316.038 660.076C316.038 655.199 312.084 651.246 307.208 651.246C302.331 651.246 298.377 655.199 298.377 660.076C298.377 664.953 302.331 668.906 307.208 668.906Z" fill="#FFE07D"/>
<path d="M351.359 713.057C356.235 713.057 360.189 709.104 360.189 704.227C360.189 699.35 356.235 695.397 351.359 695.397C346.482 695.397 342.529 699.35 342.529 704.227C342.529 709.104 346.482 713.057 351.359 713.057Z" fill="#FFE07D"/>
<path d="M307.208 713.057C312.084 713.057 316.038 709.104 316.038 704.227C316.038 699.35 312.084 695.397 307.208 695.397C302.331 695.397 298.377 699.35 298.377 704.227C298.377 709.104 302.331 713.057 307.208 713.057Z" fill="#FFE07D"/>
<path d="M227.735 589.434C247.243 589.434 263.056 573.62 263.056 554.113C263.056 534.605 247.243 518.792 227.735 518.792C208.228 518.792 192.414 534.605 192.414 554.113C192.414 573.62 208.228 589.434 227.735 589.434Z" fill="#FF8086"/>
<path d="M235.462 581.707C215.955 581.707 200.141 565.893 200.141 546.386C200.141 538.605 202.687 531.436 206.949 525.599C198.152 532.024 192.414 542.385 192.414 554.112C192.414 573.619 208.228 589.433 227.735 589.433C239.461 589.433 249.823 583.695 256.248 574.898C250.412 579.161 243.243 581.707 235.462 581.707Z" fill="#E5646E"/>
<path d="M404.708 558.159C390.078 558.159 378.217 546.299 378.217 531.668C378.217 526.714 379.602 522.094 381.969 518.128C374.224 522.751 369.019 531.19 369.019 540.866C369.019 555.497 380.88 567.357 395.51 567.357C405.187 567.357 413.626 562.152 418.249 554.406C414.283 556.774 409.663 558.159 404.708 558.159Z" fill="#E5646E"/>
<path d="M360.524 650.911C358.076 648.463 354.821 647.114 351.359 647.114C347.897 647.114 344.642 648.463 342.194 650.91C339.746 653.359 338.397 656.613 338.397 660.075C338.397 663.537 339.746 666.792 342.194 669.24C344.641 671.688 347.897 673.037 351.359 673.037C354.821 673.037 358.076 671.689 360.524 669.24C362.972 666.792 364.32 663.537 364.32 660.075C364.32 656.613 362.972 653.359 360.524 650.911ZM354.682 663.399C353.794 664.286 352.615 664.775 351.359 664.775C350.104 664.775 348.924 664.286 348.036 663.398C347.149 662.51 346.66 661.331 346.66 660.075C346.66 658.82 347.149 657.64 348.036 656.752C348.924 655.865 350.104 655.376 351.359 655.376C352.615 655.376 353.794 655.865 354.682 656.753C355.57 657.64 356.059 658.821 356.059 660.076C356.059 661.331 355.569 662.511 354.682 663.399Z" fill="black"/>
<path d="M307.208 673.031C310.527 673.031 313.846 671.768 316.373 669.241C321.426 664.187 321.426 655.965 316.373 650.911C311.319 645.857 303.097 645.858 298.043 650.911C292.989 655.964 292.989 664.187 298.043 669.241C300.57 671.767 303.889 673.031 307.208 673.031ZM303.885 656.752C305.717 654.921 308.699 654.92 310.531 656.752C312.363 658.585 312.363 661.566 310.531 663.398C308.699 665.231 305.718 665.231 303.885 663.398C302.052 661.566 302.052 658.585 303.885 656.752Z" fill="black"/>
<path d="M351.359 717.188C354.821 717.188 358.076 715.84 360.524 713.391C362.972 710.943 364.32 707.689 364.32 704.226C364.32 700.764 362.972 697.51 360.524 695.061C358.076 692.613 354.821 691.265 351.359 691.265C347.897 691.265 344.642 692.613 342.194 695.061C339.746 697.509 338.397 700.764 338.397 704.226C338.397 707.688 339.746 710.943 342.194 713.391C344.642 715.84 347.897 717.188 351.359 717.188ZM348.036 700.904C348.924 700.016 350.104 699.528 351.359 699.528C352.614 699.528 353.794 700.016 354.682 700.904C355.569 701.791 356.058 702.972 356.058 704.227C356.058 705.482 355.569 706.662 354.682 707.55C353.794 708.437 352.614 708.926 351.359 708.926C350.104 708.926 348.924 708.437 348.036 707.549C347.148 706.661 346.659 705.482 346.659 704.226C346.659 702.972 347.148 701.791 348.036 700.904Z" fill="black"/>
<path d="M298.043 713.392C300.57 715.918 303.889 717.182 307.208 717.182C310.527 717.182 313.846 715.919 316.373 713.392C317.986 711.779 317.986 709.163 316.373 707.55C314.76 705.937 312.144 705.937 310.531 707.55C308.699 709.383 305.718 709.383 303.885 707.55C302.052 705.718 302.052 702.737 303.885 700.905C305.498 699.291 305.498 696.676 303.885 695.063C302.271 693.449 299.656 693.45 298.043 695.063C292.989 700.115 292.989 708.339 298.043 713.392Z" fill="black"/>
<path d="M342.244 682.151C342.244 675.004 336.43 669.19 329.283 669.19C322.137 669.19 316.323 675.005 316.323 682.151C316.323 689.298 322.137 695.112 329.283 695.112C336.43 695.112 342.244 689.298 342.244 682.151ZM329.283 686.85C326.692 686.85 324.584 684.743 324.584 682.151C324.584 679.56 326.693 677.452 329.283 677.452C331.874 677.452 333.983 679.56 333.983 682.151C333.983 684.743 331.874 686.85 329.283 686.85Z" fill="black"/>
<path d="M413.171 669.19C407.468 669.19 402.618 672.894 400.888 678.02H390.67C390.492 675.399 390.143 672.806 389.637 670.256L394.322 669C396.526 668.41 397.834 666.144 397.243 663.941C396.653 661.737 394.389 660.429 392.184 661.02L387.489 662.278C386.641 659.804 385.636 657.39 384.485 655.049L393.364 649.923C394.845 651.232 396.612 652.2 398.577 652.726C399.694 653.025 400.827 653.174 401.953 653.174C404.198 653.174 406.415 652.584 408.412 651.431C414.602 647.858 416.73 639.916 413.156 633.726C409.582 627.536 401.64 625.409 395.451 628.982C390.513 631.833 388.164 637.465 389.229 642.77L380.354 647.894C378.903 645.727 377.316 643.65 375.598 641.678L379.034 638.242C380.647 636.629 380.647 634.013 379.034 632.4C377.421 630.786 374.805 630.786 373.192 632.4L369.764 635.828C367.809 634.114 365.739 632.514 363.558 631.047L368.663 622.205C369.506 622.375 370.358 622.46 371.206 622.46C375.688 622.46 380.054 620.135 382.452 615.982C386.025 609.793 383.897 601.85 377.708 598.277C371.519 594.703 363.576 596.831 360.003 603.021C358.272 606.019 357.812 609.512 358.708 612.856C359.234 614.821 360.202 616.588 361.511 618.069L354.405 630.378C353.264 632.353 353.941 634.88 355.916 636.021C355.951 636.04 355.987 636.054 356.022 636.072C372.386 645.591 382.549 663.236 382.549 682.15C382.549 711.521 358.654 735.416 329.284 735.416C299.913 735.416 276.018 711.521 276.018 682.15C276.018 652.779 299.913 628.885 329.284 628.885C333.963 628.885 338.604 629.491 343.078 630.687C345.284 631.276 347.546 629.967 348.136 627.763C348.138 627.752 350.415 619.249 350.415 619.249C351.006 617.046 349.698 614.78 347.494 614.19C345.292 613.6 343.025 614.907 342.434 617.111L341.184 621.776C338.624 621.274 336.029 620.935 333.415 620.761V610.545C338.541 608.816 342.245 603.965 342.245 598.262C342.245 591.115 336.43 585.301 329.284 585.301C322.138 585.301 316.323 591.116 316.323 598.262C316.323 603.965 320.026 608.816 325.153 610.545V620.764C322.515 620.94 319.922 621.282 317.385 621.782L316.133 617.111C315.543 614.907 313.277 613.599 311.074 614.19C308.87 614.78 307.563 617.046 308.153 619.249L309.404 623.92C306.918 624.771 304.504 625.779 302.171 626.929L297.057 618.07C298.365 616.588 299.333 614.821 299.86 612.856C300.756 609.513 300.296 606.019 298.565 603.022C296.834 600.023 294.039 597.878 290.695 596.982C287.35 596.086 283.857 596.546 280.86 598.278C274.671 601.851 272.542 609.793 276.116 615.983C277.847 618.981 280.642 621.126 283.986 622.022C285.102 622.321 286.235 622.469 287.361 622.469C288.218 622.469 289.07 622.382 289.908 622.212L295.022 631.07C292.852 632.53 290.78 634.126 288.818 635.844L285.375 632.401C283.762 630.788 281.146 630.788 279.534 632.401C277.92 634.015 277.92 636.63 279.534 638.243L282.976 641.685C281.259 643.648 279.663 645.72 278.202 647.89L269.337 642.771C270.403 637.467 268.054 631.835 263.115 628.983C260.118 627.252 256.625 626.792 253.281 627.688C249.936 628.584 247.142 630.729 245.41 633.727C243.679 636.725 243.219 640.218 244.116 643.562C245.012 646.906 247.156 649.701 250.154 651.432C252.151 652.585 254.368 653.174 256.614 653.174C257.739 653.174 258.873 653.026 259.989 652.727C261.954 652.2 263.721 651.233 265.203 649.924L274.062 655.039C272.912 657.372 271.904 659.786 271.053 662.272L266.383 661.02C264.181 660.431 261.913 661.738 261.323 663.941C260.733 666.145 262.04 668.41 264.244 669.001L268.915 670.253C268.416 672.79 268.073 675.383 267.898 678.021H257.678C255.949 672.894 251.098 669.191 245.396 669.191C238.249 669.191 232.435 675.005 232.435 682.152C232.435 689.298 238.249 695.113 245.396 695.113C251.098 695.113 255.949 691.409 257.678 686.283H267.898C268.073 688.921 268.415 691.514 268.915 694.051L264.244 695.302C262.041 695.893 260.733 698.158 261.323 700.362C261.818 702.207 263.487 703.425 265.311 703.425C265.665 703.425 266.025 703.379 266.383 703.282L271.053 702.031C271.905 704.518 272.913 706.932 274.062 709.264L265.206 714.377C261.145 710.801 255.093 710.019 250.154 712.871C243.965 716.445 241.837 724.387 245.41 730.576C247.809 734.73 252.174 737.055 256.657 737.055C258.854 737.055 261.08 736.496 263.116 735.321C268.054 732.469 270.403 726.837 269.337 721.532L278.203 716.414C279.663 718.584 281.259 720.655 282.976 722.618L279.534 726.061C277.921 727.674 277.921 730.289 279.534 731.902C280.34 732.709 281.398 733.112 282.455 733.112C283.512 733.112 284.569 732.709 285.376 731.902L288.818 728.46C290.781 730.177 292.853 731.773 295.023 733.233L289.903 742.098C284.599 741.031 278.966 743.38 276.115 748.319C274.384 751.318 273.924 754.81 274.82 758.155C275.716 761.498 277.861 764.294 280.859 766.025C282.856 767.178 285.072 767.767 287.318 767.767C288.444 767.767 289.578 767.619 290.693 767.32C294.038 766.423 296.832 764.279 298.564 761.281C301.415 756.343 300.633 750.29 297.058 746.229L302.171 737.373C304.503 738.523 306.917 739.531 309.404 740.382L308.152 745.053C307.562 747.256 308.87 749.521 311.073 750.112C311.431 750.208 311.791 750.254 312.145 750.254C313.969 750.254 315.638 749.036 316.133 747.191L317.384 742.52C319.922 743.019 322.515 743.362 325.153 743.537V753.757C320.026 755.487 316.322 760.337 316.322 766.04C316.322 773.187 322.137 779.001 329.283 779.001C336.43 779.001 342.244 773.186 342.244 766.04C342.244 760.337 338.541 755.487 333.414 753.757V743.537C336.052 743.362 338.645 743.02 341.182 742.52L342.434 747.191C342.928 749.036 344.597 750.254 346.422 750.254C346.776 750.254 347.135 750.208 347.493 750.112C349.697 749.522 351.005 747.256 350.415 745.053L349.163 740.382C351.65 739.531 354.064 738.523 356.396 737.373L361.509 746.229C357.933 750.29 357.152 756.343 360.003 761.281C362.401 765.434 366.767 767.759 371.25 767.759C373.447 767.759 375.673 767.2 377.709 766.025C383.898 762.452 386.026 754.509 382.453 748.32C379.602 743.382 373.969 741.032 368.665 742.098L363.546 733.233C365.716 731.773 367.788 730.177 369.751 728.459L373.194 731.902C374 732.709 375.058 733.112 376.115 733.112C377.172 733.112 378.229 732.709 379.035 731.902C380.649 730.288 380.649 727.673 379.035 726.06L375.593 722.618C377.31 720.655 378.906 718.583 380.366 716.413L389.231 721.532C388.165 726.836 390.514 732.468 395.453 735.32C397.489 736.496 399.713 737.054 401.911 737.054C406.394 737.054 410.76 734.729 413.157 730.575C416.731 724.386 414.603 716.444 408.413 712.87C403.474 710.019 397.422 710.801 393.361 714.376L384.505 709.263C385.655 706.931 386.663 704.517 387.514 702.031L392.185 703.282C392.543 703.378 392.903 703.424 393.257 703.424C395.08 703.424 396.75 702.207 397.244 700.361C397.835 698.157 396.527 695.892 394.323 695.302L389.652 694.05C390.151 691.513 390.494 688.92 390.67 686.282H400.889C402.618 691.409 407.469 695.112 413.172 695.112C420.319 695.112 426.133 689.298 426.133 682.151C426.133 675.005 420.318 669.19 413.171 669.19ZM397.393 638.991C397.718 637.779 398.495 636.766 399.582 636.138C401.827 634.842 404.707 635.614 406.002 637.858C407.298 640.102 406.526 642.982 404.282 644.278C403.194 644.905 401.929 645.072 400.716 644.747C399.503 644.422 398.49 643.645 397.862 642.558C397.235 641.47 397.068 640.204 397.393 638.991ZM286.124 614.042C284.911 613.717 283.897 612.939 283.27 611.852C282.643 610.765 282.476 609.499 282.801 608.286C283.126 607.074 283.903 606.06 284.99 605.432C285.714 605.014 286.518 604.801 287.332 604.801C287.74 604.801 288.151 604.854 288.556 604.963C289.769 605.287 290.782 606.065 291.409 607.152C292.037 608.24 292.204 609.506 291.879 610.718C291.554 611.931 290.777 612.944 289.689 613.572C288.602 614.2 287.336 614.367 286.124 614.042ZM257.851 644.747C256.639 645.072 255.372 644.906 254.285 644.278C253.198 643.65 252.42 642.637 252.096 641.424C251.771 640.212 251.937 638.946 252.565 637.858C253.193 636.771 254.206 635.994 255.419 635.669C255.823 635.56 256.234 635.507 256.643 635.507C257.457 635.507 258.261 635.72 258.984 636.138C260.072 636.766 260.849 637.779 261.174 638.992C261.499 640.204 261.332 641.471 260.705 642.558C260.077 643.646 259.063 644.422 257.851 644.747ZM258.984 728.165C256.741 729.461 253.861 728.689 252.565 726.444C251.937 725.357 251.771 724.091 252.096 722.879C252.421 721.666 253.198 720.652 254.285 720.025C255.009 719.607 255.812 719.393 256.627 719.393C257.035 719.393 257.446 719.447 257.851 719.556C259.064 719.881 260.077 720.658 260.705 721.745C262 723.99 261.228 726.87 258.984 728.165ZM291.409 757.15C290.782 758.237 289.769 759.014 288.556 759.339C287.344 759.664 286.077 759.498 284.99 758.87C283.903 758.242 283.125 757.229 282.801 756.016C282.476 754.804 282.642 753.538 283.27 752.451C283.898 751.363 284.911 750.586 286.124 750.261C287.335 749.936 288.602 750.103 289.689 750.731C290.777 751.359 291.554 752.371 291.879 753.584C292.204 754.797 292.037 756.063 291.409 757.15ZM375.297 752.45C376.593 754.695 375.821 757.575 373.577 758.87C371.333 760.166 368.453 759.394 367.157 757.15C366.529 756.063 366.363 754.797 366.688 753.584C367.012 752.371 367.79 751.358 368.877 750.731C369.615 750.304 370.422 750.102 371.219 750.102C372.844 750.102 374.427 750.944 375.297 752.45ZM400.716 719.556C401.928 719.231 403.194 719.397 404.282 720.025C406.526 721.321 407.298 724.201 406.002 726.444C404.707 728.689 401.827 729.46 399.582 728.165C397.339 726.869 396.567 723.989 397.862 721.745C398.49 720.659 399.503 719.881 400.716 719.556ZM367.157 607.153C368.027 605.647 369.61 604.804 371.235 604.804C372.032 604.804 372.839 605.007 373.577 605.433C375.821 606.728 376.593 609.608 375.297 611.852C374.002 614.096 371.122 614.868 368.877 613.572C367.79 612.944 367.012 611.932 366.688 610.719C366.363 609.506 366.529 608.24 367.157 607.153ZM329.283 593.564C331.875 593.564 333.983 595.672 333.983 598.263C333.983 600.855 331.874 602.963 329.283 602.963C326.693 602.963 324.584 600.855 324.584 598.263C324.584 595.672 326.692 593.564 329.283 593.564ZM245.396 686.85C242.804 686.85 240.696 684.743 240.696 682.151C240.696 679.56 242.805 677.452 245.396 677.452C247.986 677.452 250.095 679.56 250.095 682.151C250.095 684.743 247.987 686.85 245.396 686.85ZM329.283 770.738C326.692 770.738 324.584 768.63 324.584 766.039C324.584 763.448 326.693 761.34 329.283 761.34C331.874 761.34 333.983 763.448 333.983 766.039C333.983 768.63 331.874 770.738 329.283 770.738ZM413.171 686.85C410.579 686.85 408.471 684.743 408.471 682.151C408.471 679.56 410.58 677.452 413.171 677.452C415.762 677.452 417.87 679.56 417.87 682.151C417.87 684.743 415.762 686.85 413.171 686.85Z" fill="black"/>
<path d="M333.414 642.415C333.414 640.134 331.565 638.284 329.283 638.284H329.239C326.958 638.284 325.13 640.134 325.13 642.415C325.13 644.696 327.002 646.546 329.283 646.546C331.565 646.546 333.414 644.696 333.414 642.415Z" fill="black"/>
<path d="M289.547 678.02C287.265 678.02 285.438 679.87 285.438 682.151C285.438 684.433 287.31 686.282 289.591 686.282C291.873 686.282 293.722 684.433 293.722 682.151C293.722 679.87 291.873 678.02 289.591 678.02H289.547Z" fill="black"/>
<path d="M373.15 682.151C373.15 679.87 371.301 678.02 369.02 678.02H368.976C366.694 678.02 364.867 679.87 364.867 682.151C364.867 684.433 366.738 686.282 369.02 686.282C371.301 686.282 373.15 684.433 373.15 682.151Z" fill="black"/>
<path d="M329.283 717.757C327.002 717.757 325.175 719.606 325.175 721.888C325.175 724.169 327.046 726.019 329.327 726.019C331.609 726.019 333.458 724.169 333.458 721.888C333.458 719.606 331.609 717.757 329.327 717.757H329.283Z" fill="black"/>
<path d="M243.769 590.146L250.648 602.062C251.413 603.387 252.802 604.128 254.23 604.128C254.93 604.128 255.641 603.949 256.291 603.573C258.267 602.433 258.944 599.906 257.803 597.931L250.918 586.006C254.255 583.573 257.196 580.633 259.628 577.296L271.553 584.181C272.203 584.557 272.914 584.735 273.614 584.735C275.042 584.735 276.43 583.994 277.195 582.669C278.336 580.693 277.659 578.167 275.684 577.026L263.768 570.147C265.423 566.442 266.531 562.443 266.969 558.244H280.716C282.997 558.244 284.847 556.395 284.847 554.113C284.847 551.832 282.997 549.982 280.716 549.982H266.969C266.53 545.784 265.423 541.784 263.767 538.079L275.683 531.2C277.659 530.06 278.336 527.533 277.195 525.557C276.054 523.582 273.528 522.905 271.552 524.046L259.627 530.93C257.195 527.594 254.254 524.653 250.918 522.221L257.802 510.296C258.943 508.321 258.266 505.794 256.291 504.654C254.315 503.512 251.788 504.189 250.648 506.166L243.769 518.081C240.064 516.426 236.064 515.318 231.866 514.88V501.131C231.866 498.85 230.016 497 227.735 497C225.453 497 223.604 498.85 223.604 501.131V514.878C219.405 515.317 215.406 516.424 211.701 518.079L204.822 506.163C203.681 504.187 201.155 503.511 199.179 504.651C197.203 505.792 196.526 508.319 197.667 510.294L204.552 522.219C201.215 524.651 198.275 527.591 195.842 530.928L183.917 524.043C181.942 522.903 179.415 523.58 178.275 525.555C177.134 527.531 177.811 530.057 179.787 531.198L191.702 538.078C190.047 541.782 188.939 545.782 188.5 549.981H174.753C172.472 549.981 170.623 551.83 170.623 554.112C170.623 556.393 172.472 558.242 174.753 558.242H188.503C188.935 562.36 190.011 566.383 191.688 570.153L179.786 577.025C177.81 578.165 177.133 580.692 178.274 582.667C179.039 583.993 180.428 584.733 181.855 584.733C182.556 584.733 183.266 584.555 183.917 584.179L199.211 575.349L199.211 575.349C201.184 574.206 201.858 571.679 200.716 569.705C197.987 564.989 196.545 559.596 196.545 554.111C196.545 536.913 210.537 522.921 227.735 522.921C244.933 522.921 258.926 536.913 258.926 554.111C258.926 571.31 244.933 585.301 227.735 585.301C222.251 585.301 216.858 583.859 212.142 581.131C210.168 579.988 207.641 580.662 206.499 582.635L206.497 582.635L197.667 597.931C196.526 599.906 197.203 602.433 199.179 603.573C199.829 603.949 200.54 604.128 201.241 604.128C202.668 604.128 204.057 603.386 204.822 602.062L211.693 590.16C215.464 591.836 219.487 592.912 223.604 593.345V607.095C223.604 609.376 225.453 611.225 227.735 611.225C230.016 611.225 231.866 609.376 231.866 607.095V593.348C236.064 592.908 240.065 591.801 243.769 590.146Z" fill="black"/>
<path d="M227.735 544.998C230.017 544.998 231.866 543.149 231.866 540.868V536.452C231.866 534.171 230.017 532.321 227.735 532.321C225.454 532.321 223.604 534.171 223.604 536.452V540.868C223.604 543.148 225.454 544.998 227.735 544.998Z" fill="black"/>
<path d="M223.604 571.773C223.604 574.055 225.454 575.904 227.735 575.904C230.017 575.904 231.866 574.055 231.866 571.773V567.358C231.866 565.076 230.017 563.227 227.735 563.227C225.454 563.227 223.604 565.076 223.604 567.358V571.773Z" fill="black"/>
<path d="M245.396 558.243C247.677 558.243 249.526 556.394 249.526 554.112C249.526 551.831 247.677 549.981 245.396 549.981H240.98C238.699 549.981 236.85 551.831 236.85 554.112C236.85 556.394 238.699 558.243 240.98 558.243H245.396Z" fill="black"/>
<path d="M210.075 558.243H214.49C216.771 558.243 218.62 556.394 218.62 554.112C218.62 551.831 216.771 549.981 214.49 549.981H210.075C207.793 549.981 205.944 551.831 205.944 554.112C205.944 556.394 207.793 558.243 210.075 558.243Z" fill="black"/>
<path d="M435.247 536.737H425.85C425.146 531.483 423.102 526.548 419.885 522.335L426.529 515.691C428.143 514.078 428.143 511.462 426.529 509.849C424.916 508.236 422.3 508.236 420.688 509.849L411.322 519.215L411.331 519.238C409.726 520.85 409.726 523.459 411.335 525.07C415.55 529.292 417.871 534.903 417.871 540.868C417.871 553.197 407.84 563.228 395.51 563.228C383.181 563.228 373.15 553.197 373.15 540.868C373.15 528.538 383.181 518.508 395.51 518.508C396.87 518.508 398.23 518.63 399.555 518.872C401.8 519.281 403.951 517.794 404.36 515.55C404.77 513.305 403.282 511.154 401.038 510.745C400.575 510.66 400.109 510.587 399.641 510.524V501.131C399.641 498.85 397.792 497 395.51 497C393.229 497 391.38 498.85 391.38 501.131V510.532C386.021 511.258 381.099 513.371 376.989 516.503L370.334 509.849C368.72 508.235 366.105 508.235 364.492 509.849C362.879 511.462 362.879 514.078 364.492 515.69L371.147 522.345C368.015 526.455 365.902 531.378 365.176 536.737H355.775C353.494 536.737 351.644 538.586 351.644 540.868C351.644 543.149 353.494 544.998 355.775 544.998H365.176C365.902 550.357 368.015 555.279 371.147 559.389L364.492 566.044C362.879 567.658 362.879 570.273 364.492 571.886C365.298 572.692 366.356 573.095 367.413 573.095C368.47 573.095 369.527 572.692 370.334 571.886L376.989 565.231C381.099 568.363 386.021 570.476 391.38 571.202V580.603C391.38 582.885 393.229 584.734 395.51 584.734C397.792 584.734 399.641 582.885 399.641 580.603V571.202C405 570.476 409.922 568.363 414.032 565.231L420.687 571.886C421.494 572.692 422.551 573.095 423.608 573.095C424.665 573.095 425.722 572.692 426.529 571.886C428.142 570.273 428.142 567.657 426.529 566.044L419.874 559.389C423.006 555.279 425.119 550.357 425.845 544.998H435.246C437.527 544.998 439.377 543.149 439.377 540.868C439.377 538.586 437.528 536.737 435.247 536.737Z" fill="black"/>
<path d="M404.296 532.321C402.015 532.321 400.188 534.171 400.188 536.452C400.188 538.734 402.059 540.583 404.341 540.583C406.622 540.583 408.471 538.734 408.471 536.452C408.471 534.171 406.622 532.321 404.341 532.321H404.296Z" fill="black"/>
<path d="M395.51 545.567H395.466C393.185 545.567 391.357 547.416 391.357 549.698C391.357 551.979 393.229 553.828 395.51 553.828C397.792 553.828 399.641 551.979 399.641 549.698C399.641 547.416 397.792 545.567 395.51 545.567Z" fill="black"/>
<path d="M386.636 532.321C384.354 532.321 382.527 534.171 382.527 536.452C382.527 538.734 384.398 540.583 386.68 540.583C388.961 540.583 390.811 538.734 390.811 536.452C390.811 534.171 388.961 532.321 386.68 532.321H386.636Z" fill="black"/>
</g>
<path d="M568.355 451.957H617.397V269.562H580.215C571.283 269.562 564.043 276.802 564.043 285.734V447.645C564.043 450.026 565.974 451.957 568.355 451.957Z" fill="#F7F6F7"/>
<path d="M601.225 269.562H617.397V451.957H601.225V269.562Z" fill="#EDEBED"/>
<path d="M617.397 293.82H592.613C590.224 293.82 588.29 295.763 588.301 298.152L588.391 318.059C588.402 320.433 590.329 322.352 592.703 322.352H617.397V293.82Z" fill="#BED8FB"/>
<path d="M617.397 346.61H592.613C590.224 346.61 588.29 348.553 588.301 350.942L588.391 370.85C588.402 373.224 590.329 375.143 592.703 375.143H617.397V346.61Z" fill="#BED8FB"/>
<path d="M601.225 293.82H617.397V322.352H601.225V293.82Z" fill="#9DC6FB"/>
<path d="M601.225 346.61H617.397V375.143H601.225V346.61Z" fill="#9DC6FB"/>
<path d="M617.397 399.167H592.613C590.224 399.167 588.29 401.109 588.301 403.499L588.391 423.406C588.402 425.78 590.329 427.699 592.703 427.699H617.397V399.167Z" fill="#BED8FB"/>
<path d="M601.225 399.167H617.397V427.699H601.225V399.167Z" fill="#9DC6FB"/>
<path d="M778.603 451.957H738.174L698 443.871L657.826 451.957H617.141V247.922C617.141 238.99 624.381 231.75 633.312 231.75H762.431C771.363 231.75 778.603 238.99 778.603 247.922V451.957Z" fill="#F7F6F7"/>
<path d="M762.431 231.75H746.26C755.191 231.75 762.431 238.991 762.431 247.922V451.957H778.603V247.922C778.603 238.991 771.363 231.75 762.431 231.75Z" fill="#EDEBED"/>
<path d="M698 279.457C724.348 279.457 745.707 258.098 745.707 231.75C745.707 205.402 724.348 184.043 698 184.043C671.652 184.043 650.293 205.402 650.293 231.75C650.293 258.098 671.652 279.457 698 279.457Z" fill="#DD636E"/>
<path d="M698 184.043C695.244 184.043 692.543 184.281 689.914 184.731C712.382 188.583 729.535 208.2 729.535 231.75C729.535 255.3 712.382 274.916 689.914 278.769C692.543 279.219 695.244 279.457 698 279.457C724.306 279.457 745.707 258.056 745.707 231.75C745.707 205.444 724.306 184.043 698 184.043Z" fill="#DA4A54"/>
<path d="M726.301 223.664H707.703C706.81 223.664 706.086 222.94 706.086 222.047V203.449C706.086 201.663 704.638 200.215 702.852 200.215H693.148C691.362 200.215 689.914 201.663 689.914 203.449V222.047C689.914 222.94 689.19 223.664 688.297 223.664H669.699C667.913 223.664 666.465 225.112 666.465 226.898V236.602C666.465 238.388 667.913 239.836 669.699 239.836H688.297C689.19 239.836 689.914 240.56 689.914 241.453V260.051C689.914 261.837 691.362 263.285 693.148 263.285H702.852C704.638 263.285 706.086 261.837 706.086 260.051V241.453C706.086 240.56 706.81 239.836 707.703 239.836H726.301C728.087 239.836 729.535 238.388 729.535 236.602V226.898C729.535 225.112 728.087 223.664 726.301 223.664Z" fill="white"/>
<path d="M657.826 372.675H738.173V451.957H657.826V372.675Z" fill="#655E67"/>
<path d="M722.002 372.675H738.174V451.957H722.002V372.675Z" fill="#544F56"/>
<path d="M681.559 332.247H645.73C643.341 332.247 641.407 330.305 641.418 327.916L641.508 308.008C641.519 305.634 643.446 303.715 645.82 303.715H681.559C683.94 303.715 685.871 305.646 685.871 308.027V327.935C685.871 330.316 683.94 332.247 681.559 332.247Z" fill="#BED8FB"/>
<path d="M681.559 303.715H665.387C667.768 303.715 669.699 305.646 669.699 308.027V327.935C669.699 330.316 667.768 332.247 665.387 332.247H681.559C683.94 332.247 685.871 330.316 685.871 327.935V308.027C685.871 305.646 683.94 303.715 681.559 303.715Z" fill="#9DC6FB"/>
<path d="M714.441 303.715H750.14C752.529 303.715 754.464 305.658 754.453 308.047L754.363 327.954C754.352 330.328 752.424 332.247 750.05 332.247H714.441C712.06 332.247 710.129 330.316 710.129 327.935V308.027C710.129 305.646 712.06 303.715 714.441 303.715Z" fill="#BED8FB"/>
<path d="M750.14 303.715H733.968C736.358 303.715 738.292 305.658 738.281 308.047L738.191 327.954C738.18 330.328 736.252 332.247 733.878 332.247H750.05C752.424 332.247 754.352 330.328 754.363 327.954L754.453 308.047C754.464 305.658 752.529 303.715 750.14 303.715Z" fill="#9DC6FB"/>
<path d="M827.644 451.957H778.603V269.562H815.785C824.717 269.562 831.957 276.802 831.957 285.734V447.645C831.957 450.026 830.026 451.957 827.644 451.957Z" fill="#F7F6F7"/>
<path d="M815.785 269.562H799.613C808.545 269.562 815.785 276.803 815.785 285.734V447.645C815.785 450.026 813.854 451.957 811.473 451.957H827.645C830.026 451.957 831.957 450.026 831.957 447.645V285.734C831.957 276.802 824.717 269.562 815.785 269.562Z" fill="#EDEBED"/>
<path d="M778.603 293.82H803.387C805.776 293.82 807.71 295.763 807.699 298.152L807.609 318.059C807.598 320.433 805.671 322.352 803.297 322.352H778.603" fill="#BED8FB"/>
<path d="M778.603 346.61H803.387C805.776 346.61 807.71 348.553 807.699 350.942L807.609 370.85C807.598 373.224 805.671 375.143 803.297 375.143H778.603V346.61Z" fill="#BED8FB"/>
<path d="M778.603 399.167H803.387C805.776 399.167 807.71 401.109 807.699 403.499L807.609 423.406C807.598 425.78 805.671 427.699 803.297 427.699H778.603V399.167Z" fill="#BED8FB"/>
<path d="M743.025 356.503H652.975C651.188 356.503 649.74 357.951 649.74 359.737V369.441C649.74 371.227 651.188 372.675 652.975 372.675H743.025C744.811 372.675 746.259 371.227 746.259 369.441V359.737C746.26 357.952 744.811 356.503 743.025 356.503Z" fill="#8B808E"/>
<path d="M743.025 356.503H726.853C728.64 356.503 730.088 357.952 730.088 359.737V369.441C730.088 371.227 728.64 372.675 726.853 372.675H743.025C744.812 372.675 746.26 371.227 746.26 369.441V359.737C746.26 357.952 744.811 356.503 743.025 356.503Z" fill="#766D78"/>
<path d="M815.785 265.519H797.47C795.237 265.519 793.427 267.329 793.427 269.562C793.427 271.795 795.237 273.605 797.47 273.605H815.785C822.473 273.605 827.914 279.046 827.914 285.734V447.645C827.914 447.793 827.793 447.914 827.645 447.914H782.644V431.742H803.296C807.883 431.742 811.631 428.011 811.652 423.424L811.742 403.517C811.785 398.948 807.942 395.101 803.387 395.124H782.644V379.186H803.296C807.883 379.186 811.631 375.455 811.652 370.869L811.742 350.96C811.785 346.392 807.942 342.545 803.387 342.567H782.644V326.395H803.296C807.883 326.395 811.631 322.664 811.652 318.078L811.742 298.17C811.785 293.601 807.942 289.754 803.387 289.776H782.644V247.922C782.644 236.775 773.575 227.707 762.429 227.707H749.593C747.524 201.054 725.175 180 698 180C670.825 180 648.476 201.054 646.407 227.707H633.312C622.166 227.707 613.098 236.775 613.098 247.922V265.519H580.215C569.068 265.519 560 274.587 560 285.734V447.645C560 452.252 563.748 456 568.355 456H827.645C832.252 456 836 452.252 836 447.645V285.734C836 274.587 826.932 265.519 815.785 265.519ZM782.644 297.863H803.387C803.414 297.863 803.499 297.863 803.578 297.942C803.656 298.021 803.656 298.105 803.656 298.133L803.566 318.04C803.566 318.189 803.444 318.309 803.297 318.309H782.644V297.863ZM782.644 350.653H803.387C803.414 350.653 803.499 350.653 803.578 350.732C803.656 350.812 803.656 350.896 803.656 350.924L803.566 370.831C803.566 370.979 803.444 371.1 803.297 371.1H782.644V350.653ZM782.644 403.21H803.387C803.414 403.21 803.499 403.21 803.578 403.289C803.656 403.368 803.656 403.453 803.656 403.48L803.566 423.388C803.566 423.536 803.444 423.656 803.297 423.656H782.644V403.21ZM613.098 423.656H592.705C592.555 423.656 592.436 423.539 592.435 423.389L592.344 403.482C592.344 403.454 592.343 403.368 592.422 403.289C592.501 403.21 592.586 403.21 592.613 403.21H613.098V423.656ZM613.098 371.098H592.705C592.555 371.098 592.436 370.981 592.435 370.831L592.344 350.924C592.344 350.896 592.343 350.812 592.424 350.731C592.503 350.651 592.586 350.651 592.613 350.651H613.098V371.098ZM613.098 318.307H592.705C592.555 318.307 592.436 318.19 592.435 318.04L592.344 298.133C592.344 298.105 592.343 298.021 592.424 297.94C592.503 297.861 592.586 297.861 592.613 297.861H613.098V318.307ZM613.098 289.775H592.613C588.041 289.749 584.217 293.607 584.258 298.171L584.349 318.078C584.37 322.663 588.119 326.393 592.705 326.393H613.098V342.565H592.613C588.041 342.54 584.217 346.398 584.258 350.961L584.349 370.869C584.37 375.454 588.119 379.184 592.705 379.184H613.098V395.124H592.613C588.039 395.099 584.217 398.954 584.258 403.52L584.349 423.428C584.37 428.012 588.119 431.742 592.705 431.742H613.098V447.914H568.355C568.207 447.914 568.086 447.793 568.086 447.645V285.734C568.086 279.046 573.527 273.605 580.215 273.605H613.098V289.775ZM698 188.086C722.077 188.086 741.664 207.673 741.664 231.75C741.664 255.827 722.077 275.414 698 275.414C673.923 275.414 654.336 255.827 654.336 231.75C654.336 207.673 673.923 188.086 698 188.086ZM734.13 447.914H702.043V376.718H734.13V447.914ZM653.784 368.632V360.546H742.217V368.632H653.784ZM774.558 447.914H742.216V376.718C746.436 376.963 750.329 373.876 750.302 369.441V359.737C750.302 355.725 747.037 352.46 743.025 352.46H652.975C648.963 352.46 645.698 355.725 645.698 359.737V369.441C645.669 373.689 649.492 377.16 653.784 376.718V405.347C653.784 407.58 655.594 409.39 657.827 409.39C660.06 409.39 661.87 407.58 661.87 405.347V376.718H693.957V447.914H661.87V424.214C661.87 421.981 660.06 420.171 657.827 420.171C655.594 420.171 653.784 421.981 653.784 424.214V447.914H621.184V247.922C621.184 241.234 626.624 235.793 633.312 235.793H646.407C648.476 262.446 670.825 283.5 698 283.5C725.175 283.5 747.524 262.446 749.593 235.793H762.429C769.117 235.793 774.558 241.234 774.558 247.922V447.914ZM685.871 243.879V260.051C685.871 264.064 689.136 267.328 693.148 267.328H702.852C706.864 267.328 710.129 264.064 710.129 260.051V243.879H726.301C730.314 243.879 733.578 240.614 733.578 236.602V226.898C733.578 222.886 730.314 219.621 726.301 219.621H710.129V203.449C710.129 199.436 706.864 196.172 702.852 196.172H693.148C689.136 196.172 685.871 199.436 685.871 203.449V219.621H669.699C665.686 219.621 662.422 222.886 662.422 226.898V236.602C662.422 240.614 665.686 243.879 669.699 243.879H685.871ZM670.508 227.707H688.297C691.418 227.707 693.957 225.168 693.957 222.047V204.258H702.043V222.047C702.043 225.168 704.582 227.707 707.703 227.707H725.492V235.793H707.703C704.582 235.793 702.043 238.332 702.043 241.453V259.242H693.957V241.453C693.957 238.332 691.418 235.793 688.297 235.793H670.508V227.707ZM681.828 420.497C684.061 420.497 685.871 418.687 685.871 416.454V408.179C685.871 405.946 684.061 404.136 681.828 404.136C679.595 404.136 677.785 405.946 677.785 408.179V416.454C677.785 418.687 679.595 420.497 681.828 420.497ZM681.559 299.672H645.821C641.234 299.672 637.486 303.403 637.465 307.99L637.375 327.897C637.327 332.442 641.166 336.316 645.731 336.29H681.559C686.166 336.29 689.914 332.542 689.914 327.935V308.027C689.914 303.42 686.166 299.672 681.559 299.672ZM681.828 327.935C681.828 328.084 681.707 328.204 681.559 328.204H645.73C645.623 328.218 645.446 328.041 645.461 327.934L645.551 308.026C645.551 307.878 645.672 307.758 645.82 307.758H681.559C681.707 307.758 681.828 307.879 681.828 308.027V327.935ZM714.172 420.497C716.405 420.497 718.215 418.687 718.215 416.454V408.179C718.215 405.946 716.405 404.136 714.172 404.136C711.939 404.136 710.129 405.946 710.129 408.179V416.454C710.129 418.687 711.939 420.497 714.172 420.497ZM750.14 299.672H714.441C709.834 299.672 706.086 303.42 706.086 308.027V327.935C706.086 332.542 709.834 336.29 714.441 336.29H750.05C754.636 336.29 758.384 332.559 758.405 327.973L758.495 308.065C758.538 303.497 754.695 299.65 750.14 299.672ZM750.319 327.936C750.319 328.084 750.197 328.204 750.05 328.204H714.441C714.293 328.204 714.172 328.084 714.172 327.935V308.027C714.172 307.879 714.293 307.758 714.441 307.758H750.14C750.168 307.758 750.252 307.758 750.331 307.837C750.41 307.916 750.41 308 750.41 308.028L750.319 327.936Z" fill="black"/>
<defs>
<clipPath id="clip0">
<rect width="322" height="322" fill="white"/>
</clipPath>
<clipPath id="clip1">
<rect width="282" height="282" fill="white" transform="translate(164 497)"/>
</clipPath>
</defs>
</svg>
